<svg width="15" height="15" viewBox="0 0 15 15" fill="none" xmlns="http://www.w3.org/2000/svg">
<path d="M0.292869 0.292885C0.683386 -0.0976316 1.31656 -0.0976164 1.70708 0.292885L7.36394 5.94974L13.0208 0.292885C13.4113 -0.0976361 14.0445 -0.0976305 14.435 0.292885C14.8255 0.683409 14.8255 1.31657 14.435 1.7071L8.77815 7.36395L14.435 13.0208C14.8255 13.4113 14.8255 14.0445 14.435 14.435C14.0445 14.8255 13.4113 14.8255 13.0208 14.435L7.36394 8.77817L1.70708 14.435C1.31656 14.8255 0.683389 14.8255 0.292869 14.435C-0.097641 14.0445 -0.0976367 13.4113 0.292869 13.0208L5.94972 7.36395L0.292869 1.7071C-0.097622 1.31658 -0.0976176 0.683404 0.292869 0.292885Z" fill="#949494"/>
</svg>
