<svg width="40" height="23" viewBox="0 0 40 23" fill="none" xmlns="http://www.w3.org/2000/svg">
<path d="M40 9.54632L39.5234 7.91513L32.9285 9.85472C32.5666 9.19332 31.8924 8.72945 31.0883 8.72945C30.808 8.72945 30.5442 8.79062 30.2995 8.89002L25.6136 3.05085C25.75 2.76794 25.8468 2.46081 25.8468 2.12565C25.8468 0.95323 24.8936 0 23.7212 0C22.5487 0 21.5968 0.95323 21.5968 2.12565C21.5968 2.72333 21.8504 3.25984 22.2467 3.64598L16.4254 17.9941C16.3171 17.9941 16.2279 18.04 16.1246 18.0553L9.93883 8.81356C10.1682 8.47585 10.3352 8.09099 10.3352 7.65006C10.3352 6.47891 9.38193 5.52568 8.20951 5.52568C7.03836 5.52568 6.08385 6.47891 6.08385 7.65006C6.08385 8.04893 6.22276 8.40321 6.41646 8.7218L0 16.6968L1.32407 17.7622L7.81445 9.6967C7.94699 9.72346 8.06933 9.77698 8.20951 9.77698C8.31018 9.77698 8.39811 9.73111 8.49751 9.71709L14.6884 18.969C14.4641 19.3055 14.301 19.6852 14.301 20.1198C14.301 21.2909 15.2542 22.2442 16.4254 22.2442C17.5991 22.2442 18.5523 21.2909 18.5523 20.1198C18.5523 19.5629 18.3255 19.0684 17.9788 18.6899L23.8486 4.22582C24.0092 4.21435 24.1557 4.17484 24.3023 4.13279L29.1105 10.1211C29.0264 10.353 28.9639 10.5939 28.9639 10.8526C28.9639 12.025 29.9172 12.9782 31.087 12.9782C32.0008 12.9782 32.7641 12.3933 33.0661 11.5828L40 9.54632Z" fill="white"/>
</svg>
