<svg width="24" height="24" viewBox="0 0 24 24" fill="none" xmlns="http://www.w3.org/2000/svg">
<path d="M2.24974 0L2.38473 0.0119979C2.53458 0.039371 2.67254 0.111722 2.78026 0.219422C2.88797 0.327123 2.96033 0.465067 2.98771 0.614898L2.99971 0.749876V4.06733C4.79459 2.03178 7.22661 0.664753 9.89871 0.189431C12.5708 -0.28589 15.3251 0.158572 17.712 1.45025C20.0989 2.74194 21.9774 4.80454 23.0407 7.30131C24.104 9.79809 24.2894 12.5815 23.5666 15.1973C22.8438 17.813 21.2555 20.1064 19.061 21.7032C16.8665 23.3 14.1955 24.1057 11.4839 23.9889C8.77239 23.8721 6.18054 22.8396 4.13154 21.06C2.08254 19.2804 0.697419 16.8588 0.202319 14.1907C0.0420248 13.2094 -0.0232745 12.215 0.00732745 11.2211C0.024523 11.0292 0.11499 10.8512 0.259953 10.7241C0.404916 10.5971 0.593241 10.5307 0.785841 10.5388C0.978441 10.5469 1.16052 10.6289 1.2943 10.7677C1.42807 10.9064 1.50326 11.0914 1.50427 11.2841C1.47852 12.1649 1.53577 13.0462 1.67526 13.9162C2.11747 16.3013 3.37209 18.4597 5.22587 20.0245C7.07964 21.5893 9.41817 22.4639 11.8439 22.4997C14.2697 22.5355 16.633 21.7303 18.5322 20.2209C20.4314 18.7115 21.7492 16.5911 22.2616 14.2201C22.774 11.8491 22.4495 9.3738 21.3431 7.21499C20.2368 5.05618 18.4168 3.34706 16.1927 2.37816C13.9686 1.40926 11.4776 1.24036 9.14299 1.90018C6.80842 2.55999 4.77441 4.0078 3.38669 5.99751L7.49652 5.99901L7.63152 6.01101C7.80443 6.04232 7.96086 6.13334 8.07351 6.2682C8.18616 6.40305 8.24786 6.57318 8.24786 6.74889C8.24786 6.92459 8.18616 7.09472 8.07351 7.22958C7.96086 7.36444 7.80443 7.45546 7.63152 7.48677L7.49652 7.49876H2.24974L2.11474 7.48677C1.96489 7.45939 1.82693 7.38704 1.71922 7.27934C1.6115 7.17164 1.53914 7.0337 1.51177 6.88387L1.49977 6.74889V0.749876L1.51177 0.614898C1.53914 0.465067 1.6115 0.327123 1.71922 0.219422C1.82693 0.111722 1.96489 0.039371 2.11474 0.0119979L2.24974 0ZM11.2494 5.99901L11.3844 6.01101C11.5342 6.03838 11.6722 6.11073 11.7799 6.21843C11.8876 6.32613 11.96 6.46408 11.9873 6.61391L11.9993 6.74889V12.004H14.9992L15.1342 12.016C15.3071 12.0473 15.4636 12.1383 15.5762 12.2732C15.6889 12.4081 15.7506 12.5782 15.7506 12.7539C15.7506 12.9296 15.6889 13.0997 15.5762 13.2346C15.4636 13.3694 15.3071 13.4605 15.1342 13.4918L14.9992 13.5038H11.2494L11.1144 13.4918C10.9645 13.4644 10.8266 13.3921 10.7188 13.2844C10.6111 13.1767 10.5388 13.0387 10.5114 12.8889L10.4994 12.7539V6.74889L10.5114 6.61391C10.5388 6.46408 10.6111 6.32613 10.7188 6.21843C10.8266 6.11073 10.9645 6.03838 11.1144 6.01101L11.2494 5.99901Z" fill="#919191"/>
</svg>
