<svg width="30" height="30" viewBox="0 0 30 30" fill="none" xmlns="http://www.w3.org/2000/svg">
<path d="M27.1228 30H20.6272C19.0405 30 17.7017 28.7118 17.7017 27.0768V21.8249C17.7017 21.4286 17.4042 21.1313 17.0075 21.1313H13.0407C12.6441 21.1313 12.3466 21.4286 12.3466 21.8249V27.0768C12.3466 28.7118 11.0574 30 9.42107 30H2.92549C1.33878 30 0 28.7118 0 27.0768V10.3799C0 9.53757 0.396677 8.79438 1.09086 8.34847L13.7349 0.371594C14.5283 -0.123865 15.52 -0.123865 16.2637 0.371594L28.9078 8.39802C29.602 8.84393 29.9987 9.58712 29.9987 10.4294V27.0768C30.0483 28.6623 28.7095 30 27.1228 30ZM13.0407 18.9017H17.0075C18.6438 18.9017 19.933 20.1899 19.933 21.8249V27.0768C19.933 27.4732 20.2305 27.7704 20.6272 27.7704H27.1228C27.5194 27.7704 27.8169 27.4732 27.8169 27.0768V10.3799C27.8169 10.3303 27.7674 10.2808 27.7674 10.2312L15.0737 2.25434C15.0241 2.20479 14.9745 2.20479 14.925 2.25434L2.33047 10.2312C2.28089 10.2808 2.23131 10.3303 2.23131 10.3799V27.0768C2.23131 27.4732 2.52881 27.7704 2.92549 27.7704H9.42107C9.81775 27.7704 10.1153 27.4732 10.1153 27.0768V21.8249C10.1153 20.2395 11.4045 18.9017 13.0407 18.9017Z" fill="white"/>
</svg>
