<svg width="37" height="32" viewBox="0 0 37 32" fill="none" xmlns="http://www.w3.org/2000/svg">
<path d="M1.63788 10.8294C4.23323 9.99928 6.91932 9.58421 9.47852 9.58421C12.7944 9.58421 15.2275 10.1079 18.3635 10.1079C21.6078 10.1079 23.6265 7.90547 23.6265 5.03622C23.6265 2.09457 21.3733 0 18.598 0C16.5433 0 14.7407 1.28216 13.9841 2.99632C13.6957 3.59235 13.8041 4.29619 14.4347 4.62115C15.0114 4.90993 15.7143 4.72896 16.0926 3.9897C16.4894 3.0687 17.4622 2.34715 18.598 2.34715C20.0937 2.34715 21.2656 3.39367 21.2656 5.03622C21.2656 6.67876 20.1298 7.7607 18.3635 7.7607C15.3721 7.7607 12.9028 7.21935 9.47852 7.21935C6.54097 7.21935 3.56651 7.74299 0.917331 8.59006C0.159873 8.80722 -0.128499 9.45715 0.0522143 10.0886C0.232159 10.7023 0.827359 11.0643 1.63788 10.8294ZM29.8268 19.2755C34.0255 19.2755 37 16.6041 37 12.8685C37 9.18609 34.1701 6.51551 30.6558 6.51551C27.3937 6.51551 24.9783 8.78951 24.5454 11.7851C24.4377 12.5251 24.8522 13.1211 25.5005 13.2112C26.168 13.3013 26.7447 12.8862 26.8885 12.0376C27.1953 10.161 28.7633 8.86112 30.6558 8.86112C32.8551 8.86112 34.6392 10.5037 34.6392 12.8685C34.6392 15.2688 32.7467 16.9291 29.8268 16.9291C24.3293 16.9291 18.3996 13.7888 11.1903 13.7888C7.47761 13.7888 4.08943 14.384 0.916562 15.5214C0.178329 15.774 -0.128499 16.4054 0.0522143 17.0377C0.232159 17.6514 0.845046 18.0303 1.63788 17.7592C4.57543 16.6403 7.63986 16.1529 11.1903 16.1529C18.3819 16.1529 23.7526 19.2755 29.8268 19.2755ZM18.3819 32C21.158 32 23.3019 29.9424 23.3019 27.0007C23.3019 22.7415 18.9587 20.3589 10.9558 20.3589C7.60372 20.3589 3.981 21.0089 0.917331 22.0739C0.178329 22.3265 -0.128499 22.9579 0.0522143 23.5894C0.232159 24.2031 0.845046 24.5827 1.63788 24.3117C4.50391 23.2829 7.71215 22.7238 10.9565 22.7238C17.4983 22.7238 20.9588 24.3656 20.9588 27.0007C20.9588 28.661 19.8053 29.6544 18.3819 29.6544C16.9577 29.6544 16.0926 28.6972 15.8404 27.1809C15.7327 26.5133 15.246 25.9719 14.4708 26.0258C13.6595 26.0797 13.335 26.7666 13.4435 27.4882C13.768 29.9971 15.6243 32 18.3819 32Z" fill="#4FAF69"/>
</svg>
